<svg width="64" height="64" viewBox="0 0 64 64" xmlns="http://www.w3.org/2000/svg">
  <path
    d="M32 3 L56 12 V29 C56 46 46 57 32 61 C18 57 8 46 8 29 V12 Z"
    fill="#19752c"
  />
  <circle cx="32" cy="21" r="6.5" fill="#ffffff" />
  <path
    d="M20.5 37 C20.5 28.5 43.5 28.5 43.5 37 L43.5 39 L20.5 39 Z"
    fill="#ffffff"
  />
  <rect x="14" y="46" width="36" height="3" rx="1" fill="#ffffff" />
  <rect x="17" y="49" width="3.5" height="7" fill="#ffffff" />
  <rect x="24.5" y="49" width="3.5" height="7" fill="#ffffff" />
  <rect x="32" y="49" width="3.5" height="7" fill="#ffffff" />
  <rect x="39.5" y="49" width="3.5" height="7" fill="#ffffff" />
  <rect x="46" y="49" width="3.5" height="7" fill="#ffffff" />
  <circle cx="32" cy="41.5" r="3.4" fill="#19752c" />
  <path d="M32 43.2 L32 46.5 L30.7 46.5 L33.3 46.5 Z" fill="#19752c" />
  <rect x="30.9" y="43.6" width="2.2" height="3.4" fill="#19752c" />
</svg>
